# xmcd
#
# Track frame offsets: 
#        183
#        14035
#        36688
#        65290
#        87850
#        104013
#        133655
#        177568
#        207490
#        228850
#        260000
#        285155
#        302315
#        334238
#
# Disc length: 4629 seconds
#
# Revision: 1
# Processed by: cddbd v1.5.2PL0 Copyright (c) Steve Scherf et al.
# Submitted via: ExactAudioCopy v1.0b3
#
DISCID=ce12130e
DTITLE=Derek And The Dominos - Layla And Other Assorted Love Songs
DYEAR=1990
DGENRE=BluesRock
TTITLE0=I Looked Away
TTITLE1=Bell Bottom Blues
TTITLE2=Keep On Growing
TTITLE3=Nobody Knows You When You're Down And Out
TTITLE4=I Am Yours
TTITLE5=Anyday
TTITLE6=Key To The Highway
TTITLE7=Tell The Truth
TTITLE8=Why Does Love Got To Be So Sad
TTITLE9=Have You Ever Loved A Woman
TTITLE10=Little Wing
TTITLE11=It's Too Late
TTITLE12=Layla
TTITLE13=Thorn Tree In The Garden
EXTD=
EXTT0=
EXTT1=
EXTT2=
EXTT3=
EXTT4=
EXTT5=
EXTT6=
EXTT7=
EXTT8=
EXTT9=
EXTT10=
EXTT11=
EXTT12=
EXTT13=
PLAYORDER=
